<svg width="24" height="24" viewBox="0 0 24 24" fill="none" xmlns="http://www.w3.org/2000/svg">
<path d="M24 4.30654C23.1169 4.69873 22.168 4.96203 21.1724 5.0827C22.1899 4.47384 22.9688 3.50844 23.3363 2.35928C22.3846 2.92426 21.3288 3.33291 20.2098 3.55506C19.313 2.59789 18.0322 2 16.6171 2C13.8965 2 11.6915 4.20232 11.6915 6.923C11.6915 7.3097 11.7353 7.68544 11.8176 8.04473C7.72575 7.83903 4.09736 5.8808 1.67021 2.89958C1.24786 3.62637 1.00377 4.47384 1.00377 5.37616C1.00377 7.08481 1.87316 8.59051 3.19232 9.47363C2.38601 9.44895 1.62633 9.22679 0.962633 8.85654V8.91962C0.962633 11.3057 2.66027 13.2941 4.9119 13.7466C4.50051 13.8591 4.06445 13.9194 3.61467 13.9194C3.29654 13.9194 2.98937 13.8892 2.69044 13.8316C3.31574 15.7871 5.13404 17.2105 7.28694 17.2517C5.60302 18.5709 3.48303 19.358 1.17381 19.358C0.77614 19.358 0.386699 19.3361 0 19.2895C2.18032 20.6854 4.76654 21.5 7.54748 21.5C16.6034 21.5 21.5564 13.9989 21.5564 7.49346C21.5564 7.27954 21.5509 7.06835 21.5427 6.85717C22.5053 6.16055 23.3418 5.29388 24 4.30654Z" fill="#C0C0C0"/>
</svg>
